<svg version="1.1" id="layer" xmlns="http://www.w3.org/2000/svg" x="0" y="0" viewBox="0 0 120 93" xml:space="preserve"><style>.st1{fill:#fff}.st2{fill:#506184}</style><path d="M22.7 17.8L83.2 2l10.6 39.3 23.2-6-22.2 29.2-.2.1s-2 .6-2.7.2c-.6-.4.7-3 1.5-4.7.7-1.8 2.1-6 3.3-8.4 1.2-2.4 3-4.3 3.4-4.5.5-.2.7-1.8.6-2.6-.2-.7 0-1.6-.7-1.6s-1.3 2.2-2.3 3.5c-1 1.3-3.3 5.7-5.3 9.7-1.9 4-5.7 8.6-7.6 10.5-2 1.6-.4-1.5-.2-2.4.2-.9 1.4-3.5 1.4-3.5s1.7-1.8-.5-1.2c-2.1.6-4.1 3.8-4.1 3.8s-5.3 6.6-7.1 7.8c-1.8 1.3-1.4-.7-1-2.8.4-2 2.7-4.4 2.7-4.4l.9-.4s-.6 2-.1 1.9c.5-.1 1-.9 1.1-1.7s0-3.8-.6-3.4c-.6.4-3.5 3-4.4 4.2-.9 1.1-4.2 5.3-5.4 7.2-1.2 1.9-.4-1-.4-1s.5-1.7.6-2.4c.1-.7-.9-.4-.9-.4l-1.4 1.4s-.3.3-.3 1.4c0 1.1-1.4 2.7-2.8 3.5-1.4.8-.8-.7-.8-.7s.5-1.9 1.8-4.2c1.4-2.3 2.9-2.5 3.7-2.9.8-.4.5-.9.2-1.4s-1.2-.1-1.5.1c-.6.5-10.9 9.1-11.4 10.6-.4 1.5 1 .4 1 .4l4.1-4.4.2-.2-.1 1s-1.2 2.1-.9 3.6c.3 1.2 1.2.9 1.8.9.6-.1 1.9-1.9 2.8-2.6.8-.6.9.1 1.2.6.3.6 1.5-.2 1.5-.2s2.8-3.8 3.4-4.6c.6-.8 1.5-.8 1.5-.8s-.4 1.1.6 2.6c.9 1.5 2.6.4 3.6-.3 1-.6 4.2-4.7 5-5.7.7-1 1.8-1.2 1.8-1.2s-.6 3.2-.4 4.1c.2.8 1.6 1 3.2-.6 1.7-1.6 5.1-6.7 5.1-6.7s-.9 2.5-.6 4.5c.3 1.9 1.9 1.4 2.6 1.2.6-.4 1.2-.7 1.8-1L74.6 91 48.9 79.7c.8-2.5 3.7-11 3.8-11.3l5.6-1.8c.3-.7.6-1.6 1.2-2.7s-.9-.9-.9-.9-2.5 2-3.6 2.4c-1.5.8-.9-.9-.9-.9s2.2-4.5 2.9-6.4c.7-1.8 2.8-1.8 4.5-2.6 1.7-.7 13.3-4.4 15.3-5.1 2-.7 1.6-3.7 1.6-3.7s-2.1 1.1-3.7 1.6-12.4 4.6-13.6 5.3c-1.2.6-.6-.5-.6-1.3 0-.9-.6-.5-.6-.5s-1.5.7-2.4 1c-1 .2-1.6 2-1.6 2s-9.7 4.4-11.7 6.8c-2.1 2.4 1.2 1.3 1.2 1.3s9.3-5.5 8.6-4.2c-.7 1.3-3.9 8.8-3.9 8.8s-3.1 2.1-4.2 2.9c-1.1.9-.6 2.6-.6 2.6s4.4-3.5 3.9-2.4c-.4.9-1.8 6.4-2.3 8.2L10.1 62.7l22.4-6-9.8-38.9zm46.5 44.3s2.5-2.9 2.8-3.9c.4-.9 1.9-1.1 1.8 0-.1 1.1-2.6 3.2-2.6 3.2s-1.2 1.4-1.8 1.4c-.6 0-.2-.7-.2-.7zm17.1-4.9s-.8.1-.7-1.2c.1-1.3.4-1.1 1.1-1.7.7-.6 1.2-1.3 1.2-.2s-.1 1.7-.7 2.3c-.5.7-.9.8-.9.8z" fill-rule="evenodd" clip-rule="evenodd" fill="#df305f"/><path class="st1" d="M5.3 38.4l13.5-3.5c2.5-.6 4.5-.9 6.2-.9 1.8 0 3.2.2 4.4.8 1.2.6 2 1.4 2.6 2.6.2.5.4 1 .6 1.7.9 4.7-2.4 8-10 10l-4.7 1.2 1.5 6.5-9.3 2.4-4.8-20.8zm54-13.4c.4-.2.7-.4 1-.6 1.7-1 3.7-1.8 6.1-2.5 1.3-.3 2.4-.6 3.4-.7 1-.1 2-.1 3.2-.1 2 .1 3.7.6 5.2 1.4 1.5.8 2.6 2 3.4 3.5l.1.1-5 1.3v2.4l5.9-1.5 2.6 11.5-5.9 1.5-.9-1.9c-.5.7-1.1 1.3-1.7 1.8-1.6 1.3-3.6 2.2-6.1 2.9-3.6.9-6.8 1-9.5.1s-4.7-2.5-5.8-4.7l-.6-1.2-.3-1.1c-.8-3.3-.1-6.3 1.9-9 .7-1.3 1.7-2.3 3-3.2zM15.7 40.8l1 4.6 4-1c1.2-.3 2-.8 2.6-1.5.6-.7.7-1.4.3-2.2-.6-1.1-2.3-1.3-5.1-.6l-2.8.7zm19.5-10.2l9.5-2.5 14.9 18.1-9.2 2.4-1.8-2.5-9.3 2.4-.4 3-9 2.3 5.3-23.2zm4.9 13.3l5.8-1.5-4.6-6.7-1.2 8.2zm56.1-29.7c4.2-1.1 7.6-1.1 10.4-.1 1.3.5 2.5 1.1 3.6 2 .5.4 1 .9 1.4 1.4.4.5.8 1.1 1.1 1.7l.5 1 .3.9c.5 1.9.4 3.9-.3 5.9-.7 2-2.1 3.8-4.2 5.5-2.1 1.6-4.7 2.9-7.8 3.7-4.2 1.1-7.7 1.1-10.6.1-2.8-1-4.8-2.6-6-4.9l-.3-.8-.3-.9-.3-.8c-.4-2-.3-4 .4-5.8.7-1.8 2.1-3.5 4.1-5.2 2.3-1.7 4.9-2.9 8-3.7zm1.1 5.1c-4 1-5.2 4.1-3.5 9.1 1.3 2.5 3.3 3.4 6.2 2.6 2.3-.6 3.7-1.8 4.2-3.7.5-1.8.3-3.7-.6-5.4-.6-1.2-1.4-2-2.5-2.5-1-.4-2.2-.5-3.8-.1z"/><path class="st1" d="M10.1 61.5c-.4 0-.9-.1-1.2-.3-.5-.3-.9-.9-1.1-1.5L3 38.9c-.3-1.3.5-2.5 1.7-2.8l13.5-3.5c2.7-.7 4.9-1 6.8-1 2.1 0 3.9.3 5.4 1 .6.3 1.1.6 1.6 1l.8-3.5c.2-.9.9-1.6 1.7-1.8l9.5-2.5c.9-.2 1.8.1 2.4.8l5.2 6.3c.3-2.2 1.1-4.4 2.6-6.4.9-1.2 2-2.3 3.3-3.3.2-.2.5-.4.8-.6.2-.2.5-.3.7-.4 1.9-1.1 4.2-2 6.8-2.7 1.4-.4 2.6-.6 3.7-.7 1.1-.1 2.3-.2 3.6-.1 2.3.1 4.4.7 6.2 1.7 1 .6 1.9 1.2 2.6 2 0-.1.1-.2.1-.3.8-2.2 2.5-4.3 4.9-6.2 2.3-1.8 5.2-3.2 8.7-4.1 4.6-1.2 8.6-1.2 11.8-.1 1.6.6 3 1.4 4.3 2.4.6.5 1.2 1.1 1.7 1.7.5.6 1 1.3 1.4 2.1l.5 1c.1.1.1.3.2.4l.3.9v.1c.7 2.4.5 4.9-.3 7.3-.9 2.4-2.5 4.6-4.9 6.6-2.3 1.8-5.2 3.2-8.7 4.1-4.7 1.2-8.7 1.2-12 .1-1.1-.4-2.1-.9-3-1.5l.5 2.2c.3 1.3-.5 2.5-1.7 2.8l-5.9 1.5c-.7.2-1.4 0-2-.4-1.8 1.4-4.1 2.5-6.8 3.2-3.3.9-6.4 1-9.2.5 0 .1 0 .1-.1.2-.3.8-.9 1.4-1.7 1.6L50.9 51c-1 .2-2-.1-2.5-.9l-.8-1.1-6.1 1.6-.2 1.4c-.1 1-.8 1.8-1.8 2l-9 2.3c-.8.2-1.7 0-2.3-.6-.6-.6-.8-1.4-.7-2.2l.9-4c-1.5.7-3.2 1.3-5.3 1.9l-2.4.6 1 4.2c.3 1.3-.5 2.5-1.7 2.9l-9.3 2.4h-.6zm-2-21.4l3.7 16.1 4.6-1.2-1-4.2c-.3-1.3.5-2.5 1.7-2.9l4.7-1.2c9.2-2.4 8.6-6 8.3-7.2-.1-.4-.2-.8-.4-1.1-.4-.7-.8-1.2-1.5-1.5-.8-.4-1.9-.6-3.3-.6h-.1c-1.4 0-3.3.2-5.5.8l-11.2 3zm26.8 2.7l-1.8 7.9 3.7-1 .2-1.4c.1-1 .8-1.8 1.8-2l.7-.2c-.3-.1-.7-.3-.9-.5-.6-.5-.9-1.3-.8-2.1l1.2-8.2c.1-1 .9-1.7 1.8-2 .9-.2 1.9.2 2.5 1l4.6 6.7c.4.6.5 1.5.3 2.2-.1.3-.3.6-.6.9l.4-.1c1-.2 2 .1 2.5.9l.8 1.1 4-1-11.6-14.1-6.6 1.7-2.1 9.5c0 .2-.1.5-.1.7zm22.3-4.4c.9 1.7 2.3 2.8 4.4 3.5 2.3.7 5 .7 8.2-.1 2.1-.6 3.9-1.4 5.2-2.4.5-.4 1-.9 1.3-1.4.5-.7 1.3-1 2.2-.9.8.1 1.6.6 1.9 1.4v.1l1.7-.4-1.6-6.8-3.5.9c-.7.2-1.5 0-2.1-.4-.6-.5-.9-1.1-.9-1.9v-2.4c0-1.1.7-2 1.8-2.3l1.3-.3c-.1-.1-.2-.1-.3-.2-1.1-.6-2.6-1-4.2-1.1-1-.1-2 0-2.8.1-.9.1-1.9.3-3.1.6-2.1.6-4 1.3-5.5 2.2-.3.2-.5.3-.8.5-1 .7-1.9 1.5-2.5 2.5-1.6 2.2-2.1 4.5-1.5 7.1l.2.9.6.8zm29.8-8c.9 1.6 2.4 2.8 4.6 3.6 2.4.8 5.4.8 9.2-.2 2.8-.7 5.1-1.8 6.9-3.2 1.7-1.3 2.9-2.8 3.4-4.4.5-1.6.6-3 .2-4.5l-.2-.6-.4-.8c-.3-.5-.5-.9-.8-1.3-.3-.4-.6-.7-1-1-.9-.7-1.8-1.2-2.9-1.6-2.3-.8-5.4-.8-9 .2-2.8.7-5.1 1.8-6.9 3.2-1.7 1.3-2.8 2.7-3.4 4.1-.5 1.4-.6 2.8-.3 4.3l.5 1.5.1.7zm-27.7-5.3zM16.7 47.8c-.4 0-.9-.1-1.2-.4-.6-.3-.9-.9-1.1-1.5l-1-4.6c-.3-1.2.5-2.5 1.7-2.8l2.7-.7c4.1-1.1 6.7-.4 7.9 1.8.8 1.6.6 3.3-.6 4.8-.9 1.1-2.2 1.9-3.8 2.3l-4 1c-.2.1-.4.1-.6.1zm5.1-5.7zm76.4-8.4c-2.8 0-5.1-1.4-6.5-4.2 0-.1-.1-.2-.1-.3-1.2-3.5-1.2-6.3 0-8.5 1-1.8 2.7-3.1 5.1-3.7 2.1-.5 3.9-.4 5.5.3s2.8 1.9 3.6 3.6c1.2 2.3 1.4 4.7.8 7.1-.5 1.9-1.9 4.3-5.9 5.4-.9.2-1.7.3-2.5.3zm-2.1-6.2c.6 1.2 1.4 1.8 3.4 1.2 1.9-.5 2.3-1.3 2.5-2 .3-1.3.2-2.5-.4-3.8-.3-.7-.8-1.1-1.3-1.4-.5-.2-1.3-.3-2.3 0-1.6.4-2 1.1-2.1 1.4-.6 1-.5 2.5.2 4.6zm1.2-8.2z"/><path class="st2" d="M5.6 38.4l13.5-3.5c2.5-.6 4.5-.9 6.2-.9 1.8 0 3.2.2 4.4.8 1.2.6 2 1.4 2.6 2.6.2.5.4 1 .6 1.7.9 4.7-2.4 8-10 10l-4.7 1.2 1.5 6.5-9.3 2.4-4.8-20.8zM16 40.8l1 4.6 4-1c1.2-.3 2-.8 2.6-1.5.6-.7.7-1.4.3-2.2-.6-1.1-2.3-1.3-5.1-.6l-2.8.7zm19.5-10.2l9.5-2.5 14.9 18.1-9.2 2.4-1.8-2.5-9.3 2.4-.4 3-9 2.3 5.3-23.2zm4.9 13.3l5.8-1.5-4.6-6.7-1.2 8.2zm30.8-7.8l-1.1-4.5 12.7-3.3 2.6 11.5-5.9 1.5-.9-1.9c-1.7 2.2-4.3 3.8-7.9 4.7-3.6.9-6.8 1-9.5.1s-4.7-2.5-5.8-4.7l-.6-1.2-.3-1.1c-.8-3.3-.1-6.3 1.9-9 1-1.4 2.4-2.6 4.1-3.6 1.7-1 3.7-1.8 6.1-2.5 1.3-.3 2.4-.6 3.4-.7 1-.1 2-.1 3.2-.1 2 .1 3.7.6 5.2 1.4 1.5.8 2.6 2 3.4 3.5l.1.1-8.8 2.3c-1.1-1.6-2.9-2-5.4-1.4-4.1 1.1-5.2 4.1-3.4 9.3 1.2 2.4 3.4 3.2 6.6 2.3 1-.3 1.9-.7 2.8-1.4.9-.7 1.3-1.4 1.4-2.2l-3.9.9zm25.4-21.9c4.2-1.1 7.6-1.1 10.4-.1 1.3.5 2.5 1.1 3.6 2 .5.4 1 .9 1.4 1.4.4.5.8 1.1 1.1 1.7l.5 1 .3.9c.5 1.9.4 3.9-.3 5.9-.7 2-2.1 3.8-4.2 5.5-2.1 1.6-4.7 2.9-7.8 3.7-4.2 1.1-7.7 1.1-10.6.1-2.8-1-4.8-2.6-6-4.9l-.3-.8-.3-.9-.3-.8c-.4-2-.3-4 .4-5.8.7-1.8 2.1-3.5 4.1-5.2 2.2-1.7 4.8-2.9 8-3.7zm1.1 5.1c-4 1-5.2 4.1-3.5 9.1 1.3 2.5 3.3 3.4 6.2 2.6 2.3-.6 3.7-1.8 4.2-3.7.5-1.8.3-3.7-.6-5.4-.6-1.2-1.4-2-2.5-2.5-1-.4-2.3-.5-3.8-.1z"/><path class="st2" d="M10.1 59.7l-5-21.6L19 34.5c2.5-.6 4.6-.9 6.3-.9 1.8 0 3.3.3 4.6.8 1.2.6 2.2 1.5 2.8 2.8.2.4.4.9.5 1.5l1.9-8.3 9.9-2.6 10.4 12.6c-.1-.2-.3-.4-.4-.7l-.6-1.3-.3-1.1c-.8-3.4-.1-6.5 2-9.3 1.1-1.4 2.5-2.7 4.2-3.8 1.7-1 3.8-1.9 6.2-2.5 1.3-.3 2.4-.6 3.4-.7 1-.1 2.1-.2 3.3-.1 2 .1 3.9.6 5.4 1.4 1.5.9 2.7 2.1 3.5 3.7l.3.6-9.4 2.3-.2-.2c-1-1.4-2.6-1.8-5-1.2-1.7.4-2.8 1.2-3.4 2.3-.8 1.5-.7 3.6.3 6.4 1.1 2.2 3.1 2.9 6.2 2.1.9-.2 1.8-.7 2.6-1.4.5-.4.9-.9 1.1-1.3l-3.8 1-1.3-5.3L83 27.8l2.8 12.3-6.6 1.7-.7-1.6c-1.7 2-4.3 3.5-7.7 4.3-3.7 1-7 1-9.8.1-1.6-.5-3-1.3-4.1-2.3l3.5 4.3-10.1 2.6-1.8-2.5L40 49l-.4 3-9.9 2.6 2.2-9.7c-1.7 1.9-4.6 3.5-8.9 4.6l-4.4 1.1 1.5 6.5-10 2.6zm-4-21l4.6 20 8.5-2.2-1.6-6.5 5.1-1.3c7.5-1.9 10.6-5 9.7-9.5-.1-.6-.3-1.1-.5-1.6-.5-1.1-1.4-1.9-2.4-2.4-1.1-.5-2.5-.8-4.2-.8-1.6 0-3.7.3-6.1.9L6.1 38.7zM35.8 31l-5.1 22.5 8.1-2.1.4-3 9.8-2.5 1.8 2.5 8.3-2.2-14.3-17.6-9 2.4zm19.4 7.1l.6 1.2c1.1 2.1 3 3.7 5.6 4.5 2.7.9 5.8.8 9.3-.1 3.5-.9 6-2.4 7.6-4.6l.4-.6 1 2.2 5.2-1.3-2.4-10.7-11.9 3.1.9 3.7 4.2-1.1v.6c-.1.9-.6 1.7-1.5 2.5-.9.7-1.9 1.2-3 1.5-3.4.9-5.8 0-7.1-2.6-1.1-3-1.2-5.4-.3-7.1.7-1.3 2-2.3 3.9-2.8 2.5-.7 4.4-.2 5.7 1.3l8-2.1c-.7-1.2-1.7-2.2-3-3-1.4-.8-3.1-1.2-5-1.3-1.1-.1-2.2 0-3.1.1-1 .1-2.1.3-3.3.7-2.3.6-4.4 1.4-6 2.4-1.6 1-3 2.2-4 3.5-1.9 2.6-2.5 5.5-1.8 8.7v1.3zm-38.5 7.8l-1.2-5.4 3.1-.8c3.1-.8 4.9-.5 5.6.8.5.9.3 1.8-.3 2.6s-1.6 1.3-2.8 1.6l-4.4 1.2zm-.2-4.8l.8 3.8 3.6-.9c1.1-.3 1.9-.7 2.4-1.4.5-.6.6-1.1.2-1.8-.6-1.2-2.9-.8-4.7-.4l-2.3.7zm23.4 3.3l1.3-8.8.7-.2 5 7.2-7 1.8zm2-7.6l-1 6.5 4.7-1.2-3.7-5.3zm53.7.6c-1.7 0-3.3-.2-4.7-.7-2.9-1-5-2.8-6.2-5.1v-.1l-.3-.8-.6-1.8c-.4-2.1-.3-4.1.4-6 .7-1.9 2.1-3.7 4.3-5.3 2.1-1.7 4.8-2.9 8-3.7 4.2-1.1 7.8-1.1 10.7-.1 1.4.5 2.6 1.2 3.7 2.1.5.4 1 .9 1.4 1.4.4.5.8 1.1 1.1 1.8l.5 1.1.3.9c.5 2 .4 4.1-.3 6.2-.7 2.1-2.2 4-4.3 5.7-2.1 1.7-4.8 2.9-7.9 3.7-2.2.4-4.3.7-6.1.7zm-10.1-6.2c1.1 2.1 3 3.7 5.7 4.7s6.2.9 10.3-.1c3-.8 5.6-2 7.6-3.6s3.4-3.4 4-5.3c.7-1.9.8-3.8.3-5.7l-.3-.8-.5-1c-.3-.6-.7-1.2-1-1.6-.4-.5-.8-.9-1.3-1.3-1-.8-2.2-1.5-3.5-1.9-2.7-1-6.1-.9-10.2.2-3.1.8-5.6 2-7.7 3.6-2 1.6-3.3 3.2-4 5-.6 1.7-.8 3.6-.4 5.5l1 2.3zm13 .5c-2.1 0-3.7-1-4.7-3.1v-.1c-1-2.9-1-5.2-.1-6.9.7-1.3 2-2.2 3.9-2.7l.1.4-.1-.4c1.6-.4 3-.4 4.1.2 1.1.5 2 1.4 2.7 2.7.9 1.9 1.2 3.8.6 5.7-.5 2-2 3.3-4.5 4-.7.1-1.4.2-2 .2zm-3.9-3.4c1.2 2.3 3.1 3.1 5.8 2.4 2.2-.6 3.4-1.7 3.9-3.4s.3-3.5-.6-5.2c-.5-1.1-1.3-1.9-2.3-2.3-1-.4-2.2-.5-3.6-.1-1.6.4-2.8 1.2-3.4 2.3-.8 1.5-.7 3.6.2 6.3z"/></svg>