<svg version="1.1" id="layer" xmlns="http://www.w3.org/2000/svg" x="0" y="0" viewBox="0 0 251.3 93" xml:space="preserve"><style>.st0{fill:#e83f2e}.st1{fill:#373379}</style><ellipse transform="rotate(-23.234 169.584 20.059)" class="st0" cx="169.6" cy="20.1" rx="18.1" ry="12.7"/><path class="st1" d="M142.6 57.4l-25.6.1-2.6 6.6h2.8s1.6.5.9 2.2l-9.8 24.5h9.7l3.8-9.2h11.7s5.7-.1 8.9-5.6l5.3-13.1c-.1.1 1.6-4.4-5.1-5.5zm-6.1 9.4l-2.7 6.2s-.5 1.7-3.2 1.7l-6.2-.2 4-10h6.8c0-.1 1.9-.1 1.3 2.3zm39 4.2l5.5-13.5h-20.3s-8.1.8-10.3 6.1L146 73.9s-2.1 6.8 3.7 7.3h26.2l2.7-6.5s-4.9.6-3.1-3.7zm-10.9 3.7h-7.1s-1.5-.2-.7-2.7c0 0 2.2-7.6 5.4-7.8l6.2.2-3.8 10.3z"/><path class="st1" d="M210.6 64.5l-3.6-3.9c-1.5-1.4.1-2.7.1-2.7l1.8-1.2-4.5-4.8c-13.5 6.8-24.5 14.3-24.5 14.3-2.1 2.5-.1 5.5-.1 5.5l8.5 8.9c.8 2.4-1.6 2.9-1.6 2.9l-6.1-.1-3 6.6c1.6 0 10.8-.1 10.8-.1 8.4-4.2 10.8-7.6 10.8-7.6 1.5-2.1-.1-4.2-.1-4.2-1.1-1.4.7-2 .7-2 7-3.9 10.2-7 10.2-7 1.8-2.2.6-4.6.6-4.6zM200.4 68l-7.3 4.6c-1.1.6-1.8-.2-1.8-.2l-2.9-3.3c-.8-1 .5-2.4.5-2.4l5.6-3.6c2.5-1 3.5.1 3.5.1l2.5 2.4c.7 1.3-.1 2.4-.1 2.4zm46.4-2.7s-7.3-7.2-9.1-8c0 0-3.9-1.8-7.7.1 0 0-11.5 5.7-16.8 9.3 0 0-3.3 2.5-2.1 5.8 0 0 6.8 7.9 8.9 8.9 0 0 2.6 1.8 7.2.5 0 0 13.1-5 19.6-11.2 0 0 1.9-2.2 0-5.4zM236 70.2c-.1.3-6.6 3.8-6.6 3.8-2.1 1.1-3.6.1-3.6.1-1-.6-3.1-3.1-3.1-3.1-.8-.8.1-2.1.1-2.1 1.3-1.3 6.9-4.1 6.9-4.1 1.3-.8 3.4.2 3.4.2l3 2.7c1.2 1.2-.1 2.5-.1 2.5z"/><path class="st0" d="M112.9 57.5h-9.7s-6.1 14.9-6.7 17c0 0-1.2 3.7.6 5.1 0 0 1.9 1.9 4 1.9l6.7-.1 2.9-6.7h-2.2s-2.5-.5-1.4-2.9l5.8-14.3zm-4.5-9.7s3.6-1.2 5.6.2c0 0 2.6 1.6.5 4.4 0 0-1.6 2.7-6.1 2.8 0 0-3.8.5-4-2.7 0 0-.2-3.2 4-4.7zM95.9 59s-1.3-1.4-4.6-1.7l-24.6.1-2.5 6.8h2.1s2.3 0 1 3.3l-9.1 23.4 9.6.1 3.5-9.6 12.5.1s3.6.4 6.9-3.6c0 0 5-7.9 6.3-13.8-.2-.1 1-3.4-1.1-5.1zm-10 7.9c0 1.3-2.5 6-2.5 6-1.2 1.7-3.3 1.7-3.3 1.7H74l4.2-10.1h6.5c2.1.1 1.2 2.4 1.2 2.4zm-27.4 3.9l5.4-13.4-19.4-.1c-2.9 0-6.2 1.5-6.2 1.5-3.8 1.8-4.6 4.4-4.6 4.4-1.4 2.2-4.4 10.4-4.4 10.4-1.7 4.1 0 5.5 0 5.5 1.6 2.3 4.8 2.2 4.8 2.2l24.9.1 2.7-6.6-3.1-.5c-1.5-.6-.1-3.5-.1-3.5zm-11 3.7l-6.5.1s-2.3-.1-1.3-3.2c0 0 1.2-4.1 2.5-5.5 0 0 .8-1.6 3.4-1.6l5.7.1-3.8 10.1zM33 57.4l-2.9 6.9h-7.6s-2.1-.4-3.4 2.5l-5.7 14.5-9.8.1 9.5-24.1 19.9.1z"/><path class="st1" d="M166.8 2.2s-9.5 3.2-12.7 6.9c0 0-5.4 4.8-7.2 12.5 0 0-.8 7.2 2.7 10.7 0 0 3.3 4.2 6.5 5.3 0 0 4.6 1.9 11.4 1.2 0 0 11.4-1.4 17.3-8 0 0-2.9 6.1-12 12.3 0 0-6.3 4.6-16.3 6.9 0 0-9.2 2.4-17.2.4 0 0-8.2-1.6-12.1-6.5 0 0-4.2-4.1-4.2-10 0 0-.5-6.6 4.9-14 0 0 5.5-6.8 11.1-10.1 0 0 7.2-4.1 12.7-5.7-.1-.1 7.2-2.5 15.1-1.9z"/></svg>